<?xml version="1.0" standalone="no"?>
<!DOCTYPE svg PUBLIC "-//W3C//DTD SVG 20010904//EN"
        "http://www.w3.org/TR/2001/REC-SVG-20010904/DTD/svg10.dtd">
<svg version="1.0" xmlns="http://www.w3.org/2000/svg"
     width="567.000000pt" height="567.000000pt" viewBox="0 0 567.000000 567.000000"
     preserveAspectRatio="xMidYMid meet">

    <g transform="translate(0.000000,567.000000) scale(0.100000,-0.100000)"
       fill="#000000" stroke="none">
        <path d="M2670 5420 c-634 -42 -1218 -307 -1665 -755 -327 -327 -549 -708
-670 -1150 -119 -433 -119 -917 0 -1350 121 -442 343 -823 670 -1150 1011
-1013 2649 -1013 3660 0 327 327 549 708 670 1150 119 433 119 917 0 1350
-121 442 -343 823 -670 1150 -245 245 -477 402 -830 560 -319 143 -784 221
-1165 195z m367 -81 c154 -13 226 -26 403 -72 252 -65 393 -124 655 -272 60
-34 200 -132 270 -189 263 -214 495 -493 637 -766 139 -269 226 -527 275 -815
26 -157 26 -592 0 -748 -108 -641 -418 -1177 -907 -1569 -576 -461 -1329 -639
-2064 -487 -517 107 -1027 413 -1368 819 -301 359 -484 760 -565 1237 -23 136
-26 593 -5 713 8 41 27 152 44 245 40 226 83 352 191 558 114 217 188 327 332
495 139 162 302 301 573 490 101 70 399 209 497 232 58 14 96 26 145 48 44 19
318 71 450 85 80 8 317 6 437 -4z"/>
        <path d="M2670 5285 c0 -16 67 -218 128 -385 35 -95 41 -105 65 -108 25 -3 30
4 81 112 30 63 58 125 62 138 4 13 17 46 29 73 43 94 65 159 56 168 -5 5 -19
7 -32 5 -22 -3 -54 -71 -156 -333 -11 -27 -26 -50 -33 -50 -7 0 -21 24 -31 55
-68 215 -102 317 -111 328 -15 17 -58 15 -58 -3z"/>
        <path d="M2260 5238 c-41 -10 -79 -23 -83 -27 -9 -9 91 -449 106 -468 5 -7 17
-13 27 -13 34 0 38 22 19 103 -29 122 -21 124 92 22 46 -41 89 -75 96 -75 6 0
24 5 40 11 l28 10 -80 74 -80 74 38 31 c49 42 66 83 58 141 -9 57 -40 101 -85
123 -43 20 -82 19 -176 -6z m168 -81 c26 -24 30 -81 7 -115 -16 -22 -117 -58
-134 -48 -5 4 -17 40 -27 81 -21 87 -17 95 48 105 53 9 77 4 106 -23z"/>
        <path d="M3342 5183 c-86 -104 -283 -376 -279 -386 2 -6 17 -15 33 -19 27 -7
33 -3 80 49 l52 58 88 -23 c49 -13 93 -27 97 -31 4 -5 12 -36 17 -71 10 -72
14 -77 55 -82 28 -3 30 -1 29 27 0 30 -33 270 -57 415 -12 74 -32 110 -61 110
-8 0 -32 -21 -54 -47z m53 -169 c4 -41 4 -79 -1 -84 -10 -10 -92 7 -108 21
-11 10 71 139 89 139 9 0 16 -24 20 -76z"/>
        <path d="M1758 5067 c-54 -29 -98 -58 -98 -65 0 -7 35 -79 79 -160 43 -81 93
-175 111 -209 18 -35 36 -63 40 -63 13 0 193 99 208 114 11 10 10 17 -5 35
l-19 23 -65 -36 c-36 -20 -73 -36 -82 -36 -11 0 -27 21 -44 55 -32 64 -31 65
57 113 59 33 68 47 47 76 -12 17 -16 16 -78 -18 -36 -20 -73 -36 -82 -36 -20
0 -73 100 -65 122 3 7 35 29 72 48 65 34 72 43 60 74 -10 25 -32 19 -136 -37z"/>
        <path d="M3804 5059 c-19 -21 -19 -21 19 -53 20 -17 37 -34 37 -38 0 -3 -45
-87 -100 -185 l-101 -178 22 -18 c12 -10 27 -16 33 -14 6 2 52 77 102 166 113
201 112 200 160 178 40 -19 64 -10 64 23 0 19 -26 37 -146 101 l-71 39 -19
-21z"/>
        <path d="M1337 4796 c-46 -17 -64 -32 -83 -67 -35 -68 -6 -161 61 -190 47 -21
79 -16 168 24 69 32 86 33 121 6 39 -31 37 -88 -6 -124 -25 -21 -39 -26 -64
-22 -25 4 -37 0 -55 -19 -32 -34 -13 -49 60 -49 48 1 65 6 95 28 45 35 66 75
66 127 0 52 -21 92 -63 124 -46 36 -100 34 -180 -4 -35 -16 -75 -30 -89 -30
-33 0 -58 29 -58 67 0 39 28 63 72 63 34 0 68 24 68 48 0 25 -64 35 -113 18z"/>
        <path d="M4135 4734 c-121 -43 -196 -184 -166 -311 17 -68 67 -132 132 -168
46 -26 64 -30 129 -30 64 0 83 4 127 29 136 75 179 263 89 385 -69 93 -202
134 -311 95z m182 -81 c55 -26 85 -76 91 -153 4 -57 1 -74 -18 -108 -28 -50
-66 -79 -122 -91 -98 -22 -190 32 -219 130 -22 73 21 187 84 221 55 29 122 30
184 1z"/>
        <path d="M2698 4735 c-2 -2 -55 -9 -118 -15 -63 -6 -144 -17 -180 -26 -98 -22
-231 -59 -265 -74 -16 -7 -50 -21 -75 -32 -25 -10 -52 -23 -60 -28 -8 -5 -51
-29 -95 -52 -44 -23 -120 -75 -170 -115 -49 -40 -96 -73 -103 -73 -18 0 -207
-192 -281 -285 -97 -121 -174 -255 -275 -477 -14 -31 -26 -64 -26 -72 0 -14
-16 -63 -40 -121 -5 -11 -20 -88 -34 -170 -20 -115 -26 -177 -24 -260 l3 -110
1838 -3 c1600 -2 1838 0 1843 12 9 24 -15 289 -36 399 -54 281 -185 569 -363
797 -337 434 -848 692 -1398 706 -75 2 -138 1 -141 -1z m-140 -961 l-3 -839
-750 0 -750 0 2 95 c4 252 118 581 288 835 175 262 392 453 670 590 83 41 193
88 245 105 110 35 281 71 293 61 4 -4 6 -385 5 -847z m707 805 c249 -71 499
-208 699 -385 147 -130 315 -355 405 -544 98 -205 161 -444 164 -620 l2 -95
-700 0 -700 0 -3 825 c-1 454 0 831 3 838 5 14 21 12 130 -19z m-327 -525 c87
-36 142 -120 142 -219 0 -135 -99 -235 -230 -235 -130 0 -229 100 -230 233 0
98 50 178 135 218 49 23 133 24 183 3z"/>
        <path d="M984 4430 c-23 -9 -156 -150 -152 -161 4 -10 360 -300 376 -306 28
-12 152 166 152 219 0 31 -38 96 -67 115 -18 12 -47 18 -87 18 -60 0 -60 0
-67 33 -9 43 -31 66 -78 80 -44 14 -48 14 -77 2z m88 -87 c24 -21 23 -58 -3
-99 -25 -42 -49 -43 -95 -6 -42 33 -43 51 -5 91 33 35 74 41 103 14z m168 -98
c32 -17 50 -43 50 -73 0 -24 -66 -112 -84 -112 -18 0 -116 80 -116 95 0 20 86
96 118 104 2 1 16 -6 32 -14z"/>
        <path d="M4543 4191 c-100 -75 -188 -142 -195 -149 -10 -10 -7 -17 12 -37 l25
-24 65 49 c36 27 73 50 83 50 9 0 17 -1 17 -2 0 -2 -16 -52 -35 -112 -37 -113
-37 -132 -5 -161 19 -17 20 -17 29 6 5 13 20 57 32 97 12 40 25 75 29 77 4 3
26 -4 48 -15 51 -25 85 -25 138 -1 74 34 110 114 81 183 -19 45 -118 178 -132
177 -5 0 -92 -62 -192 -138z m227 -3 c42 -57 41 -107 -1 -142 -33 -28 -53 -31
-92 -17 -31 12 -89 85 -82 103 8 18 114 98 131 98 8 0 27 -19 44 -42z"/>
        <path d="M745 3984 c-92 -22 -170 -101 -193 -196 -16 -62 -15 -84 4 -147 52
-177 269 -241 421 -125 114 87 119 308 8 401 -57 49 -177 82 -240 67z m149
-93 c16 -9 43 -34 60 -54 41 -51 49 -143 17 -205 -59 -116 -211 -134 -300 -37
-87 94 -59 245 53 296 51 23 131 23 170 0z"/>
        <path d="M4857 3757 c-114 -122 -117 -124 -199 -154 -75 -27 -83 -32 -80 -54
1 -13 6 -27 11 -32 5 -5 48 5 95 22 l87 30 117 -20 c171 -30 222 -36 226 -30
2 3 -1 20 -8 36 -12 30 -13 30 -141 45 -74 9 -130 20 -132 26 -2 6 37 52 88
101 87 85 91 91 82 118 -5 16 -14 30 -19 32 -6 2 -63 -52 -127 -120z"/>
        <path d="M2193 2730 c-180 -40 -367 -292 -385 -520 l-3 -35 60 0 c59 0 59 0
66 33 4 19 11 38 16 43 6 6 43 9 84 7 l74 -3 5 -40 5 -40 60 0 60 0 3 274 c1
151 -1 278 -5 281 -5 4 -22 4 -40 0z m-85 -301 l-3 -74 -62 -3 c-74 -3 -77 2
-33 72 37 58 80 100 92 88 5 -5 8 -42 6 -83z"/>
        <path d="M3033 2730 c-180 -40 -367 -292 -385 -520 l-3 -35 60 0 c59 0 59 0
66 33 4 19 11 38 16 43 6 6 43 9 84 7 l74 -3 5 -40 5 -40 60 0 60 0 3 274 c1
151 -1 278 -5 281 -5 4 -22 4 -40 0z m-85 -301 l-3 -74 -62 -3 c-74 -3 -77 2
-33 72 37 58 80 100 92 88 5 -5 8 -42 6 -83z"/>
        <path d="M1665 2710 c-64 -25 -153 -95 -206 -162 -75 -94 -147 -278 -138 -348
l4 -25 210 0 210 0 0 110 0 110 -60 0 -60 0 -5 -60 -5 -60 -77 -3 c-74 -3 -78
-2 -78 19 0 12 16 56 36 97 42 88 109 159 175 186 76 31 74 28 74 92 0 69 -6
72 -80 44z"/>
        <path d="M2315 2718 c-3 -7 -4 -132 -3 -278 l3 -265 140 0 140 0 0 45 0 45
-75 5 -75 5 -5 225 -5 225 -58 3 c-40 2 -59 -1 -62 -10z"/>
        <path d="M3124 2716 c-3 -8 -4 -29 -2 -48 l3 -33 65 -5 65 -5 5 -225 5 -225
65 0 65 0 5 225 5 225 65 5 65 5 0 45 0 45 -203 3 c-168 2 -203 0 -208 -12z"/>
        <path d="M3575 2718 c-3 -7 -4 -132 -3 -278 l3 -265 140 0 140 0 0 45 0 45
-75 5 -75 5 0 65 0 65 65 5 65 5 0 45 0 45 -65 5 -65 5 0 55 0 55 75 5 75 5 0
45 0 45 -138 3 c-105 2 -139 0 -142 -10z"/>
        <path d="M3935 2718 c-3 -7 -4 -132 -3 -278 l3 -265 140 0 140 0 0 45 0 45
-75 5 -75 5 0 65 0 65 70 5 70 5 0 45 0 45 -70 5 -70 5 0 55 0 55 75 5 75 5 0
45 0 45 -138 3 c-105 2 -139 0 -142 -10z"/>
        <path d="M1170 2017 c0 -8 22 -50 49 -95 166 -276 396 -502 671 -657 869 -493
1965 -202 2481 657 27 45 49 87 49 95 0 11 -273 13 -1625 13 -1352 0 -1625 -2
-1625 -13z m3074 -105 c8 -14 -119 -175 -213 -270 -185 -186 -454 -352 -700
-432 -188 -60 -292 -75 -536 -75 -188 0 -236 3 -331 22 -341 70 -664 243 -905
485 -94 95 -221 256 -213 270 7 11 2891 11 2898 0z"/>
    </g>
</svg>
