<?xml version="1.0" standalone="no"?>
<!DOCTYPE svg PUBLIC "-//W3C//DTD SVG 20010904//EN"
        "http://www.w3.org/TR/2001/REC-SVG-20010904/DTD/svg10.dtd">
<svg version="1.0" xmlns="http://www.w3.org/2000/svg"
     width="500.000000pt" height="200.000000pt" viewBox="0 0 500.000000 200.000000"
     preserveAspectRatio="xMidYMid meet">

    <g transform="translate(0.000000,200.000000) scale(0.100000,-0.100000)"
       fill="#000000" stroke="none">
        <path d="M1547 1939 c-104 -69 -113 -90 -198 -450 -47 -204 -51 -230 -39 -258
7 -17 20 -31 29 -31 19 0 211 128 211 141 0 14 -7 12 -69 -23 -62 -34 -91 -33
-91 4 0 30 83 379 115 485 29 95 52 118 107 108 29 -6 36 -2 56 24 l23 31 -49
0 c-37 0 -59 -7 -95 -31z"/>
        <path d="M2632 1840 c-40 -55 -72 -103 -72 -106 0 -3 6 -4 13 -2 21 5 179 187
172 198 -17 27 -45 5 -113 -90z"/>
        <path d="M553 1865 c-90 -20 -155 -59 -227 -136 -75 -79 -120 -165 -141 -268
-25 -118 -3 -198 67 -242 44 -27 139 -22 228 14 35 15 66 25 68 23 2 -2 -7
-42 -19 -88 -17 -64 -30 -91 -56 -117 l-33 -33 -84 4 -83 4 -21 -33 c-12 -18
-22 -36 -22 -39 0 -3 35 -5 79 -3 l79 4 -29 -33 c-64 -73 -99 -179 -98 -296 1
-117 26 -171 95 -206 103 -53 293 6 403 125 71 77 111 185 111 300 0 108 -32
180 -93 212 -41 21 -147 20 -206 -1 -24 -9 -45 -16 -47 -16 -2 0 12 21 31 46
20 26 43 63 51 83 13 31 60 201 78 284 4 15 12 27 19 27 6 0 23 9 37 20 l25
20 -123 0 c-98 0 -132 -4 -160 -17 l-37 -18 83 -3 c45 -2 82 -4 82 -5 -3 -32
-43 -154 -56 -168 -48 -53 -173 -77 -223 -43 -33 24 -61 91 -61 149 0 233 184
456 342 414 42 -11 88 -60 88 -94 0 -39 15 -36 53 10 34 40 36 46 25 70 -24
53 -119 74 -225 50z m148 -858 c19 -12 43 -40 53 -61 39 -81 28 -243 -25 -349
-74 -148 -241 -201 -326 -104 -78 89 -67 299 23 429 29 41 94 92 129 101 52
13 113 6 146 -16z"/>
        <path d="M2230 1751 c-32 -17 -37 -26 -50 -88 l-15 -68 -43 -6 c-64 -8 -78
-29 -19 -29 26 0 47 -4 47 -10 0 -5 -9 -49 -21 -97 -38 -163 -40 -181 -24
-219 9 -21 21 -34 32 -34 40 0 227 128 211 145 -3 3 -25 -5 -47 -20 -102 -64
-132 -40 -106 83 33 159 28 152 89 152 39 0 60 6 77 20 l24 19 -72 1 c-40 0
-73 1 -73 3 0 1 9 36 20 77 27 104 28 102 -30 71z"/>
        <path d="M1025 1654 c-66 -36 -118 -88 -142 -142 -67 -152 -69 -312 -4 -312
10 0 54 24 97 53 44 28 84 55 90 59 8 5 9 -6 3 -40 -10 -52 -6 -72 14 -72 23
0 197 120 197 135 0 20 -2 19 -56 -15 -50 -32 -64 -31 -64 3 0 37 61 281 77
305 8 13 12 27 8 30 -4 4 -48 8 -98 10 -70 2 -99 -2 -122 -14z m93 -40 l30 -6
-32 -121 -31 -121 -55 -39 c-35 -24 -64 -37 -80 -35 -24 3 -25 5 -24 78 1 84
29 170 71 220 26 31 55 37 121 24z"/>
        <path d="M1765 1654 c-66 -36 -118 -88 -142 -142 -67 -152 -69 -312 -3 -312
10 0 58 27 107 59 48 33 89 58 90 57 1 -1 -3 -21 -8 -45 -11 -49 -7 -71 14
-71 22 0 197 121 197 136 0 19 -2 18 -56 -16 -50 -32 -64 -31 -64 3 0 37 61
281 77 305 8 13 12 27 8 30 -4 4 -48 8 -98 10 -70 2 -99 -2 -122 -14z m93 -40
l30 -6 -32 -121 -31 -121 -55 -39 c-35 -24 -64 -37 -80 -35 -24 3 -25 5 -24
78 1 84 29 170 71 220 26 31 55 37 121 24z"/>
        <path d="M2552 1630 c-95 -63 -145 -170 -146 -308 -1 -69 1 -75 27 -98 50 -43
120 -29 219 44 61 45 81 67 76 82 -2 6 -27 -8 -56 -30 -102 -76 -162 -76 -183
3 -10 39 -10 43 12 59 173 124 187 136 205 183 16 43 16 50 3 74 -11 20 -24
27 -55 29 -33 2 -51 -4 -102 -38z m72 -16 c42 -41 -12 -125 -123 -189 -33 -19
29 145 70 183 27 26 33 27 53 6z"/>
        <path d="M2932 1630 c-95 -63 -145 -170 -146 -308 -1 -69 1 -75 27 -98 54 -47
150 -21 251 69 66 58 57 79 -12 27 -102 -76 -161 -75 -184 2 -12 39 -11 42 12
59 175 126 188 137 206 184 16 43 16 50 3 74 -11 20 -24 27 -55 29 -33 2 -51
-4 -102 -38z m82 -31 c14 -40 -17 -93 -82 -139 -30 -22 -57 -38 -60 -36 -8 8
30 121 51 151 43 60 75 69 91 24z"/>
        <path d="M1178 1120 c-115 -87 -121 -98 -163 -277 -21 -87 -52 -221 -70 -298
-18 -77 -32 -141 -30 -143 2 -2 12 1 23 7 11 6 42 8 70 4 47 -5 57 -2 128 38
42 24 91 61 109 82 59 69 102 251 73 307 -27 51 -101 35 -215 -46 l-21 -15 19
88 c26 117 46 177 70 207 17 22 29 26 69 26 42 0 51 4 69 29 12 16 21 32 21
35 0 3 -19 6 -42 6 -36 0 -54 -9 -110 -50z m36 -326 c26 -10 28 -64 7 -148
-34 -129 -84 -185 -155 -172 -57 11 -57 12 -26 134 31 123 41 141 104 171 45
23 48 24 70 15z"/>
        <path d="M3610 951 c-32 -17 -37 -26 -50 -88 l-15 -68 -43 -6 c-64 -8 -78 -29
-19 -29 26 0 47 -5 47 -10 0 -6 -12 -59 -26 -118 -28 -120 -33 -177 -15 -210
16 -31 37 -28 110 16 121 71 183 145 70 82 -117 -64 -129 -28 -68 203 10 37
10 37 63 37 39 0 60 6 77 20 l24 19 -72 1 c-40 0 -73 1 -73 3 0 1 9 36 20 77
27 104 28 102 -30 71z"/>
        <path d="M2860 887 c-14 -8 -23 -20 -21 -28 3 -8 4 -41 4 -74 0 -109 -63 -236
-145 -296 -47 -33 -60 -35 -83 -12 -43 43 6 212 89 310 39 45 47 71 19 57 -10
-5 -56 -9 -103 -10 -47 0 -90 -1 -96 -2 -12 -2 -47 -77 -58 -125 -12 -52 7
-50 33 4 l26 54 67 5 c43 3 64 1 60 -5 -3 -5 -25 -33 -48 -62 -52 -63 -84
-147 -84 -217 0 -84 47 -108 135 -67 128 59 275 281 275 416 0 61 -22 77 -70
52z"/>
        <path d="M1565 856 c-41 -18 -111 -97 -120 -134 -8 -39 14 -79 62 -112 54 -37
68 -64 53 -100 -15 -36 -50 -60 -89 -60 -35 0 -61 31 -61 72 0 34 0 33 -44 7
-45 -26 -49 -67 -10 -106 22 -22 32 -25 72 -21 90 9 179 72 203 145 17 51 4
78 -55 123 -60 44 -71 65 -57 103 18 48 71 61 113 27 25 -19 25 -19 47 4 26
27 26 35 4 52 -23 17 -79 17 -118 0z"/>
        <path d="M1892 830 c-95 -63 -145 -170 -146 -308 -1 -69 1 -75 27 -98 54 -47
150 -21 251 69 66 58 57 79 -12 27 -102 -76 -161 -75 -184 2 -12 39 -11 42 12
59 175 126 188 137 206 184 16 43 16 50 3 74 -11 20 -24 27 -55 29 -33 2 -51
-4 -102 -38z m82 -31 c14 -40 -17 -93 -82 -139 -30 -22 -57 -38 -60 -36 -8 8
30 121 51 151 43 60 75 69 91 24z"/>
        <path d="M2201 829 c-45 -23 -81 -48 -81 -55 0 -18 4 -17 41 2 24 12 34 13 45
3 16 -13 16 -11 -38 -212 -22 -82 -37 -151 -35 -154 3 -3 22 1 41 8 27 10 38
21 44 44 5 16 24 88 42 159 31 117 37 130 64 147 38 23 83 24 107 3 15 -14 18
-12 33 32 21 63 21 64 -18 64 -22 0 -52 -12 -86 -35 -29 -19 -54 -35 -55 -35
-2 0 -1 16 2 35 7 46 -5 46 -106 -6z"/>
        <path d="M3145 854 c-66 -36 -118 -88 -142 -142 -65 -148 -69 -301 -7 -310 11
-2 54 20 100 50 43 29 84 56 90 60 8 5 9 -6 3 -40 -10 -52 -6 -72 14 -72 23 0
197 120 197 135 0 20 -2 19 -56 -15 -50 -32 -64 -31 -64 3 0 37 61 281 77 305
8 13 12 27 8 30 -4 4 -48 8 -98 10 -70 2 -99 -2 -122 -14z m101 -40 l22 -6
-32 -121 -31 -121 -55 -39 c-35 -24 -64 -37 -80 -35 -24 3 -25 5 -24 78 1 84
29 170 71 220 20 25 32 30 66 30 23 0 52 -3 63 -6z"/>
        <path d="M3995 846 c-92 -44 -131 -79 -169 -158 -61 -122 -59 -244 3 -278 35
-18 86 -11 151 22 117 58 174 139 201 286 25 132 -58 189 -186 128z m65 -36
c21 -11 40 -60 40 -106 0 -58 -40 -162 -79 -205 -48 -52 -90 -61 -125 -26 -22
22 -26 35 -26 86 0 157 105 296 190 251z"/>
        <path d="M4308 830 c-72 -37 -96 -55 -86 -66 3 -2 22 3 42 11 70 30 72 8 12
-210 -25 -88 -44 -161 -43 -162 2 -1 21 7 44 17 34 15 44 25 52 57 72 278 73
280 101 297 39 23 97 21 112 -3 11 -18 14 -18 39 -5 33 16 55 18 64 4 3 -5
-10 -70 -29 -144 -20 -73 -36 -146 -36 -160 0 -36 17 -66 37 -66 19 0 107 48
166 91 22 16 42 28 43 26 8 -7 -54 -248 -70 -271 -9 -15 -29 -32 -44 -37 -26
-10 -140 -7 -172 5 -10 4 -23 -6 -37 -29 -13 -19 -23 -37 -23 -40 0 -3 41 -5
92 -5 110 0 155 18 218 86 54 59 72 103 105 249 14 66 42 180 60 254 19 74 33
136 31 138 -2 3 -22 -5 -45 -16 -43 -22 -40 -16 -76 -161 -9 -36 -20 -81 -25
-100 -8 -28 -21 -42 -64 -67 -30 -18 -63 -33 -74 -33 -40 0 -38 28 12 230 39
154 38 150 20 150 -10 0 -51 -18 -92 -41 l-75 -41 7 28 c4 16 8 33 9 39 1 5
-13 11 -31 13 -24 2 -46 -5 -75 -25 -72 -49 -69 -48 -61 -9 8 48 -8 47 -108
-4z"/>
    </g>
</svg>
